<?xml version="1.0" encoding="utf-8"?>
<!-- Generator: Adobe Illustrator 13.0.2, SVG Export Plug-In . SVG Version: 6.00 Build 14948)  -->
<!DOCTYPE svg PUBLIC "-//W3C//DTD SVG 1.1//EN" "http://www.w3.org/Graphics/SVG/1.1/DTD/svg11.dtd">
<svg version="1.1" id="Layer_1" xmlns="http://www.w3.org/2000/svg" xmlns:xlink="http://www.w3.org/1999/xlink" x="0px" y="0px"
	 width="32px" height="32px" viewBox="0 0 32 32" enable-background="new 0 0 32 32" xml:space="preserve">
<g>
	<g>
		<path stroke="#000000" stroke-width="3.408" stroke-miterlimit="10" d="M9.303,7.502c-1.145,0-1.789,0.592-1.789,1.802v12.472
			c0,1.132,0.579,1.725,1.723,1.725h12.525c1.145,0,1.724-0.562,1.724-1.725V9.304c0-1.18-0.579-1.802-1.76-1.802
			C21.726,7.502,9.299,7.498,9.303,7.502z"/>
	</g>
	<g>
		<path fill="#FFFFFF" d="M14.81,9.738c0.001-0.942,1.421-0.942,1.42,0.026v3.954l5.535,3.327v1.461l-5.508-1.812v2.954l1.274,0.996
			v1.155l-1.965-0.61l-1.965,0.61v-1.155l1.261-0.996v-2.954l-5.509,1.812v-1.461l5.456-3.327V9.738z"/>
	</g>
</g>
</svg>
