<?xml version="1.0" encoding="utf-8"?>
<!-- Generator: Adobe Illustrator 13.0.2, SVG Export Plug-In . SVG Version: 6.00 Build 14948)  -->
<!DOCTYPE svg PUBLIC "-//W3C//DTD SVG 1.1//EN" "http://www.w3.org/Graphics/SVG/1.1/DTD/svg11.dtd">
<svg version="1.1" id="Layer_1" xmlns="http://www.w3.org/2000/svg" xmlns:xlink="http://www.w3.org/1999/xlink" x="0px" y="0px"
	 width="32px" height="32px" viewBox="0 0 32 32" enable-background="new 0 0 32 32" xml:space="preserve">
<g id="layer1" transform="translate(0,-952.362)">
	<path fill="#ffffff" id="rect13131-6" d="M14.088,959.862c-0.941,0-1.775,0.947-1.882,1.882l-0.324,2.824h-1.559c-0.471,0-0.941,0.471-0.941,0.941
		l-0.941,9.411c0,0.471,0.47,0.941,0.941,0.941h12.236c0.47,0,0.94-0.471,0.94-0.941l-0.94-9.411c0-0.471-0.471-0.941-0.941-0.941
		h-1.56l-0.323-2.824c-0.106-0.935-0.941-1.882-1.882-1.882H14.088z M14.088,960.803h2.824c0.471,0,0.888,0.474,0.94,0.941
		l0.324,2.824h-5.353l0.323-2.824C13.201,961.277,13.618,960.803,14.088,960.803z"/>
</g>
</svg>
