<?xml version="1.0" encoding="utf-8"?>
<!-- Generator: Adobe Illustrator 13.0.2, SVG Export Plug-In . SVG Version: 6.00 Build 14948)  -->
<!DOCTYPE svg PUBLIC "-//W3C//DTD SVG 1.1//EN" "http://www.w3.org/Graphics/SVG/1.1/DTD/svg11.dtd">
<svg version="1.1" id="Layer_1" xmlns="http://www.w3.org/2000/svg" xmlns:xlink="http://www.w3.org/1999/xlink" x="0px" y="0px"
	 width="32px" height="32px" viewBox="0 0 32 32" enable-background="new 0 0 32 32" xml:space="preserve">
<g>
	<g>
		<path d="M15.563,7.5c-1.48,0-3.525,0.423-4.371,0.775c-0.846,0.353-1.41,0.705-1.586,1.586l-0.635,4.885v6.731h1.093v1.056
			c0,1.287,1.884,1.287,1.884,0v-1.056h3.477h0.011h3.615v1.056c0,1.287,1.884,1.287,1.884,0v-1.056h1.093v-6.731l-0.635-4.885
			c-0.176-0.881-0.74-1.234-1.586-1.586S16.917,7.5,15.437,7.5"/>
	</g>
	<g>
		<g>
			<g>
				<circle fill="#FFFFFF" cx="19.993" cy="18.465" r="0.903"/>
				<path fill="#FFFFFF" d="M19.993,18.465"/>
			</g>
			<g>
				<circle fill="#FFFFFF" cx="11.007" cy="18.465" r="0.903"/>
				<path fill="#FFFFFF" d="M11.007,18.465"/>
			</g>
		</g>
		<g>
			<path fill="#FFFFFF" d="M15.43,9.527h-2.616c-0.529,0-0.529-0.793,0-0.793h2.623h2.749c0.529,0,0.529,0.793,0,0.793H15.43z"/>
		</g>
		<g>
			<path fill="#FFFFFF" d="M15.43,10.328h-4.042c-0.559,0-0.705,0.284-0.772,0.714l-0.494,3.543
				c-0.046,0.34,0.052,0.677,0.521,0.677h4.793h4.92c0.469,0,0.567-0.337,0.521-0.677l-0.494-3.543
				c-0.067-0.431-0.214-0.714-0.772-0.714H15.43z"/>
		</g>
	</g>
</g>
</svg>
