<?xml version="1.0" encoding="utf-8"?>
<!-- Generator: Adobe Illustrator 13.0.2, SVG Export Plug-In . SVG Version: 6.00 Build 14948)  -->
<!DOCTYPE svg PUBLIC "-//W3C//DTD SVG 1.1//EN" "http://www.w3.org/Graphics/SVG/1.1/DTD/svg11.dtd">
<svg version="1.1" id="Layer_1" xmlns="http://www.w3.org/2000/svg" xmlns:xlink="http://www.w3.org/1999/xlink" x="0px" y="0px"
	 width="32px" height="32px" viewBox="0 0 32 32" enable-background="new 0 0 32 32" xml:space="preserve">
<g>
	<g>
		<path stroke="#000000" stroke-width="3.408" stroke-miterlimit="10" d="M9.303,7.501c-1.146,0-1.789,0.592-1.789,1.802v12.472
			c0,1.132,0.579,1.725,1.723,1.725h12.524c1.145,0,1.725-0.563,1.725-1.725V9.303c0-1.18-0.58-1.802-1.76-1.802
			C21.727,7.501,9.299,7.498,9.303,7.501z"/>
	</g>
	<g>
		<g>
			<path fill="#FFFFFF" d="M15.573,9.865c-1.115,0-2.656,0.319-3.293,0.584c-0.638,0.266-1.062,0.531-1.195,1.195l-0.478,3.681
				v5.072h0.823v0.795c0,0.97,1.419,0.97,1.419,0v-0.795h2.62h0.008h2.724v0.795c0,0.97,1.42,0.97,1.42,0v-0.795h0.822v-5.072
				l-0.479-3.681c-0.133-0.664-0.557-0.929-1.195-1.195c-0.637-0.266-2.178-0.584-3.292-0.584"/>
		</g>
		<g>
			<g>
				<g>
					<circle cx="18.91" cy="18.126" r="0.681"/>
					<path d="M18.91,18.127"/>
				</g>
				<g>
					<circle cx="12.14" cy="18.126" r="0.681"/>
					<path d="M12.14,18.127"/>
				</g>
			</g>
			<g>
				<path d="M15.472,11.393h-1.971c-0.398,0-0.398-0.598,0-0.598h1.976h2.072c0.398,0,0.398,0.598,0,0.598H15.472z"/>
			</g>
			<g>
				<path d="M15.472,11.996h-3.045c-0.421,0-0.531,0.214-0.582,0.538l-0.372,2.669c-0.035,0.256,0.04,0.51,0.393,0.51h3.611h3.707
					c0.354,0,0.428-0.254,0.393-0.51l-0.371-2.669c-0.051-0.324-0.162-0.538-0.582-0.538H15.472z"/>
			</g>
		</g>
	</g>
</g>
</svg>
