<?xml version="1.0" encoding="utf-8"?>
<!-- Generator: Adobe Illustrator 13.0.2, SVG Export Plug-In . SVG Version: 6.00 Build 14948)  -->
<!DOCTYPE svg PUBLIC "-//W3C//DTD SVG 1.1//EN" "http://www.w3.org/Graphics/SVG/1.1/DTD/svg11.dtd">
<svg version="1.1" id="Layer_1" xmlns="http://www.w3.org/2000/svg" xmlns:xlink="http://www.w3.org/1999/xlink" x="0px" y="0px"
	 width="32px" height="32px" viewBox="0 0 32 32" enable-background="new 0 0 32 32" xml:space="preserve">
<path id="path2468" d="M19.469,22.45h-0.243c-0.142-0.162-0.194-0.364-0.151-0.614c0.07-0.411,0.364-0.754,0.504-0.803l-0.002-0.004
	c0.198-0.071,0.346-0.265,0.346-0.491l0.011-10.776c0-0.289-0.233-0.524-0.517-0.526c0,0-2.157-0.002-2.748-0.006
	c0.002-0.508,0.004-1.205,0.004-1.205c0-0.212-0.124-0.403-0.318-0.485c-0.194-0.082-0.415-0.037-0.564,0.11l-3.609,3.622
	c-0.634,0.637-1.134,1.841-1.136,2.746l-0.028,7.539c-0.002,1.054,0.845,1.918,1.892,1.923l6.561,0.02
	c0.285,0,0.518-0.235,0.518-0.522v-0.001C19.985,22.685,19.757,22.452,19.469,22.45 M18.894,10.284c0,0.899-0.008,8.829-0.01,9.729
	h-5.912l3.702-3.137l-0.008-6.597C17.002,10.282,18.582,10.284,18.894,10.284 M12.052,21.56c0,0,0.002-0.434,0.002-0.498h6.192
	c-0.09,0.19-0.161,0.392-0.194,0.594c-0.049,0.281-0.025,0.543,0.037,0.79l-5.178-0.016C12.437,22.43,12.052,22.041,12.052,21.56"/>
</svg>
