<?xml version="1.0" encoding="utf-8"?>
<!-- Generator: Adobe Illustrator 13.0.2, SVG Export Plug-In . SVG Version: 6.00 Build 14948)  -->
<!DOCTYPE svg PUBLIC "-//W3C//DTD SVG 1.1//EN" "http://www.w3.org/Graphics/SVG/1.1/DTD/svg11.dtd">
<svg version="1.1" id="Layer_1" xmlns="http://www.w3.org/2000/svg" xmlns:xlink="http://www.w3.org/1999/xlink" x="0px" y="0px"
	 width="32px" height="32px" viewBox="0 0 32 32" enable-background="new 0 0 32 32" xml:space="preserve">
<g>
	<path fill="#231F20" d="M13.802,10.194c-0.657,0-1.19,0.525-1.19,1.173c0,0.649,0.533,1.174,1.19,1.174
		c0.653,0,1.189-0.525,1.189-1.174C14.992,10.719,14.456,10.194,13.802,10.194"/>
	<path fill="#231F20" d="M19.835,12.515c-0.043-0.254-0.252-0.397-0.267-0.408L12.58,7.5l-0.648,0.942
		c-0.12,0.186-0.068,0.431,0.116,0.552C12.234,9.117,12.48,9.066,12.6,8.88l0.379-0.543l5.676,3.747l-4.649,0.835
		c-0.33,0.056-0.568,0.386-0.494,0.708l1.012,3.913l-3.272,4.91c-0.197,0.333-0.077,0.763,0.26,0.956
		c0.343,0.195,0.775,0.075,0.972-0.262c0,0,3.414-5.134,3.427-5.164l0.176,0.714l-0.513,3.854c-0.064,0.381,0.196,0.741,0.583,0.806
		s0.754-0.194,0.816-0.573l0.53-3.962c0.018-0.101-0.004-0.323-0.025-0.423l-1.168-4.638l3.036-0.547
		C19.673,13.154,19.893,12.84,19.835,12.515"/>
</g>
</svg>
