<?xml version="1.0" encoding="utf-8"?>
<!-- Generator: Adobe Illustrator 13.0.2, SVG Export Plug-In . SVG Version: 6.00 Build 14948)  -->
<!DOCTYPE svg PUBLIC "-//W3C//DTD SVG 1.1//EN" "http://www.w3.org/Graphics/SVG/1.1/DTD/svg11.dtd">
<svg version="1.1" id="Layer_1" xmlns="http://www.w3.org/2000/svg" xmlns:xlink="http://www.w3.org/1999/xlink" x="0px" y="0px"
	 width="32px" height="32px" viewBox="0 0 32 32" enable-background="new 0 0 32 32" xml:space="preserve">
<g id="layer1" transform="translate(0,-952.362)">
	<path id="rect7645-6" d="M15.5,960.283l-6.316,4.21h12.631L15.5,960.283z M10.026,965.336c-0.466,0-0.842,0.375-0.842,0.842v5.895
		l-1.474,2.526c-0.125,0.214-0.21,0.3-0.21,0.42c0,0.422,0.532,0.422,0.842,0.422h14.315c0.3,0,0.843,0,0.843-0.422
		c0-0.122-0.073-0.185-0.211-0.42l-1.474-2.526v-5.895c0-0.467-0.375-0.842-0.842-0.842H10.026z M11.71,967.02
		c0.467,0,0.766,0.382,0.842,0.842v5.053h-1.684v-1.685v-3.368C10.869,967.396,11.244,967.02,11.71,967.02L11.71,967.02z
		 M15.5,967.02c0.467,0,0.85,0.376,0.842,0.842v3.368v1.685h-1.684v-1.685v-3.368C14.658,967.395,15.033,967.02,15.5,967.02
		L15.5,967.02z M19.289,967.02c0.467,0,0.843,0.375,0.843,0.842v5.053h-1.685v-1.685v-3.368
		C18.447,967.396,18.823,967.02,19.289,967.02L19.289,967.02z"/>
</g>
</svg>
