<?xml version="1.0" encoding="utf-8"?>
<!-- Generator: Adobe Illustrator 13.0.2, SVG Export Plug-In . SVG Version: 6.00 Build 14948)  -->
<!DOCTYPE svg PUBLIC "-//W3C//DTD SVG 1.1//EN" "http://www.w3.org/Graphics/SVG/1.1/DTD/svg11.dtd">
<svg version="1.1" id="Layer_1" xmlns="http://www.w3.org/2000/svg" xmlns:xlink="http://www.w3.org/1999/xlink" x="0px" y="0px"
	 width="32px" height="32px" viewBox="0 0 32 32" enable-background="new 0 0 32 32" xml:space="preserve">
<g>
	<g>
		<path fill="#1161d9" stroke="#1161d9" stroke-width="3.408" stroke-miterlimit="10" d="M9.303,7.501c-1.146,0-1.789,0.592-1.789,1.802v12.472
			c0,1.132,0.579,1.725,1.724,1.725h12.524c1.145,0,1.725-0.563,1.725-1.725V9.303c0-1.18-0.58-1.802-1.761-1.802
			C21.726,7.501,9.299,7.498,9.303,7.501z"/>
	</g>
	<g>
		<g>
			<g>
				<path fill="#FFFFFF" d="M15.491,20.193h0.002h1.872l1.368,2.005h1.103l-1.912-2.868c0.638-0.103,1.272-0.768,1.272-1.578v-5.926
					c0-0.836-0.704-1.604-1.66-1.604l-2.037-0.001l0,0l-2.053,0.001c-0.956,0-1.66,0.768-1.66,1.604v5.926
					c0,0.811,0.635,1.476,1.272,1.578l-1.912,2.868h1.103l1.368-2.005h1.872H15.491z"/>
			</g>
			<g>
				<circle fill="#FFFFFF" cx="14.88" cy="9.589" r="0.46"/>
			</g>
			<g>
				<circle fill="#FFFFFF" cx="16.102" cy="9.589" r="0.46"/>
			</g>
		</g>
		<g>
			<g>
				<circle fill="#1161d9" cx="17.555" cy="17.738" r="0.728"/>
			</g>
			<g>
				<path fill="#1161d9" d="M15.491,14.616h0.002h1.988c0.457,0,0.831-0.314,0.826-0.827v-1.066c0-0.443-0.286-0.831-0.826-0.831h-1.988h-0.004
					h-1.988c-0.54,0-0.827,0.387-0.827,0.831v1.066c-0.004,0.513,0.37,0.827,0.827,0.827h1.988H15.491z"/>
			</g>
			<g>
				<path fill="#1161d9" d="M15.491,11.573h0.002h0.804c0.152,0,0.271-0.125,0.271-0.271v-0.471c0-0.146-0.126-0.268-0.271-0.268h-0.804h-0.002
					h-0.002h-0.804c-0.146,0-0.271,0.123-0.271,0.268v0.471c0,0.146,0.119,0.271,0.271,0.271h0.804H15.491z"/>
			</g>
			<g>
				<circle fill="#1161d9" cx="13.411" cy="17.738" r="0.728"/>
			</g>
		</g>
	</g>
</g>
</svg>
