<?xml version="1.0" encoding="utf-8"?>
<!-- Generator: Adobe Illustrator 13.0.2, SVG Export Plug-In . SVG Version: 6.00 Build 14948)  -->
<!DOCTYPE svg PUBLIC "-//W3C//DTD SVG 1.1//EN" "http://www.w3.org/Graphics/SVG/1.1/DTD/svg11.dtd">
<svg version="1.1" id="Layer_1" xmlns="http://www.w3.org/2000/svg" xmlns:xlink="http://www.w3.org/1999/xlink" x="0px" y="0px"
	 width="32px" height="32px" viewBox="0 0 32 32" enable-background="new 0 0 32 32" xml:space="preserve">
<g>
	<g>
		<path d="M15.5,21.045h0.002h2.293l1.674,2.455h1.351l-2.341-3.512c0.78-0.126,1.558-0.94,1.558-1.933v-7.255
			c0-1.023-0.862-1.964-2.032-1.964L15.51,8.835l0,0l-2.514,0.002c-1.17,0-2.032,0.94-2.032,1.964v7.255
			c0,0.992,0.777,1.807,1.558,1.933L10.181,23.5h1.351l1.674-2.455h2.292H15.5z"/>
	</g>
	<g>
		<g>
			<circle cx="14.752" cy="8.062" r="0.562"/>
		</g>
		<g>
			<circle cx="16.248" cy="8.062" r="0.562"/>
		</g>
		<g>
			<circle fill="#FFFFFF" cx="18.025" cy="18.039" r="0.891"/>
		</g>
		<g>
			<path fill="#FFFFFF" d="M15.5,14.217h0.002h2.434c0.561,0,1.018-0.385,1.014-1.012v-1.307c0-0.542-0.352-1.016-1.014-1.016
				h-2.434h-0.004h-2.434c-0.662,0-1.013,0.474-1.013,1.016v1.307c-0.005,0.627,0.453,1.012,1.013,1.012h2.434H15.5z"/>
		</g>
		<g>
			<path fill="#FFFFFF" d="M15.5,10.491h0.002h0.984c0.186,0,0.333-0.152,0.333-0.331V9.584c0-0.179-0.154-0.328-0.333-0.328h-0.984
				H15.5h-0.002h-0.984c-0.178,0-0.333,0.149-0.333,0.328v0.576c0,0.179,0.146,0.331,0.333,0.331h0.984H15.5z"/>
		</g>
		<g>
			<circle fill="#FFFFFF" cx="12.954" cy="18.039" r="0.891"/>
		</g>
	</g>
</g>
</svg>
