<?xml version="1.0" encoding="utf-8"?>
<!-- Generator: Adobe Illustrator 13.0.2, SVG Export Plug-In . SVG Version: 6.00 Build 14948)  -->
<!DOCTYPE svg PUBLIC "-//W3C//DTD SVG 1.1//EN" "http://www.w3.org/Graphics/SVG/1.1/DTD/svg11.dtd">
<svg version="1.1" id="Layer_1" xmlns="http://www.w3.org/2000/svg" xmlns:xlink="http://www.w3.org/1999/xlink" x="0px" y="0px"
	 width="32px" height="32px" viewBox="0 0 32 32" enable-background="new 0 0 32 32" xml:space="preserve">
<path fill-rule="evenodd" clip-rule="evenodd" fill="#231F20" d="M21.476,13.936c-0.16-1.188,1.176-3.028,1.19-3.046l0.137-0.186
	l-0.163-0.165l-2.203-2.245l-0.14-0.14l-0.175,0.087c-1.407,0.705-2.597,0.916-3.44,0.611c-0.693-0.25-0.923-0.755-0.935-0.778
	L15.494,7.5c0-0.002-0.243,0.575-0.243,0.575c-0.009,0.021-0.238,0.527-0.933,0.777c-0.843,0.304-2.032,0.093-3.44-0.611
	l-0.176-0.087l-0.138,0.14l-2.206,2.245l-0.163,0.165l0.137,0.186c0.013,0.019,1.353,1.858,1.19,3.046
	c-0.312,0.616-2.188,4.464-1.175,5.97c0.027,0.049,0.405,0.73,1.524,1.277c0.663,0.324,1.581,0.601,2.841,0.676
	c0.126,0.021,1.812,0.305,2.567,1.343L15.5,23.5l0.218-0.299c0.756-1.038,2.44-1.322,2.567-1.343
	c3.394-0.199,4.324-1.874,4.366-1.953C23.666,18.399,21.788,14.551,21.476,13.936z"/>
</svg>
