<?xml version="1.0" encoding="utf-8"?>
<!-- Generator: Adobe Illustrator 13.0.2, SVG Export Plug-In . SVG Version: 6.00 Build 14948)  -->
<!DOCTYPE svg PUBLIC "-//W3C//DTD SVG 1.1//EN" "http://www.w3.org/Graphics/SVG/1.1/DTD/svg11.dtd">
<svg version="1.1" id="Layer_1" xmlns="http://www.w3.org/2000/svg" xmlns:xlink="http://www.w3.org/1999/xlink" x="0px" y="0px"
	 width="32px" height="32px" viewBox="0 0 32 32" enable-background="new 0 0 32 32" xml:space="preserve">
<path fill-rule="evenodd" clip-rule="evenodd" fill="#231F20" d="M23.477,14.113c-0.08-4.58-2.587-6.408-2.693-6.484l-0.149-0.106
	l-0.149,0.106c-2.598,1.84-4.728,0.089-4.819,0.015L15.5,7.5l-0.167,0.143c-0.088,0.074-2.22,1.825-4.817-0.015l-0.149-0.106
	l-0.149,0.106c-0.108,0.076-2.615,1.904-2.693,6.484c-0.021,0.17-0.177,1.855,0.675,3.827c0.536,1.236,1.557,2.742,3.496,3.965
	c0.105-0.133,0.204-0.27,0.302-0.408c-4.434-2.746-3.985-7.11-3.958-7.333L8.04,14.15v-0.013c0.019-1.174,0.208-2.154,0.475-2.966
	h13.969c0.267,0.812,0.456,1.792,0.475,2.966l0.003,0.013v0.015c0.032,0.269,0.683,6.61-7.462,8.798
	c-1.418-0.381-2.568-0.889-3.503-1.467c-0.098,0.139-0.196,0.275-0.302,0.408c0.988,0.623,2.215,1.174,3.738,1.576L15.5,23.5
	l0.066-0.02c4.513-1.193,6.425-3.672,7.232-5.541C23.653,15.968,23.494,14.283,23.477,14.113"/>
</svg>
