<?xml version="1.0" encoding="utf-8"?>
<!-- Generator: Adobe Illustrator 13.0.2, SVG Export Plug-In . SVG Version: 6.00 Build 14948)  -->
<!DOCTYPE svg PUBLIC "-//W3C//DTD SVG 1.1//EN" "http://www.w3.org/Graphics/SVG/1.1/DTD/svg11.dtd">
<svg version="1.1" id="Layer_1" xmlns="http://www.w3.org/2000/svg" xmlns:xlink="http://www.w3.org/1999/xlink" x="0px" y="0px"
	 width="32px" height="32px" viewBox="0 0 32 32" enable-background="new 0 0 32 32" xml:space="preserve">
<path fill="#FFFFFF" d="M23.298,15.508L23.298,15.508c0,2.472-2.325,4.505-4.446,4.749c-0.141,0.018-2.195,0.183-3.319,0.203
	c-1.123,0.018-3.255-0.187-3.403-0.205c-2.117-0.253-4.427-2.281-4.427-4.747v-0.017c0-2.465,2.311-4.493,4.427-4.749
	c0.147-0.016,2.28-0.221,3.403-0.201c1.124,0.018,3.178,0.184,3.319,0.2c2.121,0.245,4.446,2.278,4.446,4.75V15.508z"/>
<path fill-rule="evenodd" clip-rule="evenodd" fill="#231F20" d="M18.875,10.54c-0.13-0.015-2.196-0.184-3.34-0.202
	c-1.131-0.019-3.276,0.185-3.43,0.204C9.926,10.804,7.5,12.901,7.5,15.491v0.017c0,1.544,0.861,2.911,2.02,3.822
	c0.098-0.093,0.19-0.189,0.28-0.289c-1.083-0.835-1.894-2.102-1.894-3.533v-0.017c0-2.378,2.239-4.305,4.248-4.547
	c0.152-0.018,2.264-0.218,3.375-0.2c1.131,0.018,3.171,0.184,3.299,0.199c2.018,0.232,4.267,2.157,4.267,4.548v0.017
	c0,2.391-2.249,4.315-4.267,4.548c-0.129,0.017-2.175,0.182-3.299,0.2c-1.098,0.019-3.23-0.183-3.375-0.201
	c-0.8-0.096-1.638-0.462-2.354-1.014c-0.089,0.1-0.182,0.196-0.28,0.289c0.784,0.616,1.705,1.021,2.585,1.127
	c0.153,0.02,2.291,0.224,3.43,0.205c1.137-0.019,3.209-0.188,3.34-0.202c2.187-0.253,4.625-2.348,4.625-4.952v-0.017
	C23.5,12.888,21.062,10.792,18.875,10.54"/>
</svg>
