<?xml version="1.0" encoding="utf-8"?>
<!-- Generator: Adobe Illustrator 13.0.2, SVG Export Plug-In . SVG Version: 6.00 Build 14948)  -->
<!DOCTYPE svg PUBLIC "-//W3C//DTD SVG 1.1//EN" "http://www.w3.org/Graphics/SVG/1.1/DTD/svg11.dtd">
<svg version="1.1" id="Layer_1" xmlns="http://www.w3.org/2000/svg" xmlns:xlink="http://www.w3.org/1999/xlink" x="0px" y="0px"
	 width="32px" height="32px" viewBox="0 0 32 32" enable-background="new 0 0 32 32" xml:space="preserve">
<path fill-rule="evenodd" clip-rule="evenodd" fill="#231F20" d="M21.478,13.935c-0.162-1.188,1.175-3.028,1.189-3.046l0.137-0.187
	l-0.163-0.164l-2.203-2.245l-0.14-0.14l-0.175,0.087c-1.407,0.705-2.598,0.915-3.44,0.611c-0.694-0.25-0.923-0.755-0.935-0.778
	L15.495,7.5c0-0.002-0.244,0.576-0.244,0.576c-0.009,0.021-0.237,0.527-0.931,0.777c-0.844,0.304-2.034,0.093-3.44-0.611
	l-0.176-0.087l-0.138,0.14l-2.206,2.245l-0.163,0.164l0.137,0.187c0.013,0.019,1.353,1.858,1.19,3.046
	C9.212,14.55,7.334,18.4,8.348,19.906c0.027,0.048,0.405,0.729,1.524,1.276c0.176-0.113,0.351-0.233,0.516-0.364
	c-1.174-0.492-1.557-1.158-1.562-1.168l-0.007-0.014c-0.001-0.001-0.01-0.015-0.01-0.015c-0.758-1.064,0.623-4.32,1.218-5.483
	l0.018-0.038l0.007-0.042c0.194-1.177-0.784-2.76-1.15-3.302l1.914-1.945c1.493,0.715,2.74,0.898,3.707,0.542
	C15,9.176,15.31,8.899,15.5,8.671c0.188,0.229,0.5,0.505,0.978,0.684c0.965,0.356,2.211,0.172,3.709-0.542l1.911,1.945
	c-0.367,0.542-1.344,2.125-1.15,3.302l0.006,0.042l0.021,0.038c0.597,1.163,1.975,4.418,1.217,5.483l-0.01,0.015l-0.009,0.015
	c-0.007,0.015-0.852,1.491-3.931,1.668l-0.013,0.001h-0.012c-0.075,0.012-1.743,0.262-2.717,1.299
	c-0.975-1.037-2.642-1.287-2.717-1.299h-0.013l-0.01-0.001c-1.019-0.059-1.792-0.26-2.373-0.501
	c-0.165,0.131-0.34,0.251-0.516,0.364c0.662,0.324,1.581,0.601,2.841,0.676c0.126,0.021,1.812,0.306,2.567,1.343l0.22,0.3l0.218-0.3
	c0.757-1.037,2.441-1.322,2.568-1.343c3.395-0.2,4.324-1.875,4.366-1.952C23.666,18.4,21.789,14.55,21.478,13.935"/>
</svg>
