<?xml version="1.0" encoding="utf-8"?>
<!-- Generator: Adobe Illustrator 13.0.2, SVG Export Plug-In . SVG Version: 6.00 Build 14948)  -->
<!DOCTYPE svg PUBLIC "-//W3C//DTD SVG 1.1//EN" "http://www.w3.org/Graphics/SVG/1.1/DTD/svg11.dtd">
<svg version="1.1" id="Layer_1" xmlns="http://www.w3.org/2000/svg" xmlns:xlink="http://www.w3.org/1999/xlink" x="0px" y="0px"
	 width="32px" height="32px" viewBox="0 0 32 32" enable-background="new 0 0 32 32" xml:space="preserve">
<g>
	<g>
		<g>
			<g>
				<path fill="#FFFFFF" d="M23.218,14.098c-0.07-4.518-2.581-6.292-2.583-6.294c-2.8,1.985-5.134,0-5.134,0s-2.334,1.985-5.133,0
					c0,0-2.514,1.778-2.585,6.294c0,0-0.826,6.841,7.718,9.099C24.046,20.939,23.218,14.098,23.218,14.098z M22.961,14.149
					l-0.001-0.011l0.003,0.026L22.961,14.149z"/>
			</g>
		</g>
		<g>
			<g>
				<polygon fill="#231F20" points="22.96,14.139 22.961,14.149 22.963,14.165 				"/>
			</g>
		</g>
	</g>
	<path fill="#231F20" d="M20.783,7.629l-0.148-0.105l-0.148,0.105c-2.598,1.84-4.729,0.089-4.819,0.016L15.5,7.501l-0.167,0.144
		c-0.089,0.073-2.22,1.824-4.817-0.016l-0.148-0.105l-0.15,0.105c-0.086,0.062-1.73,1.264-2.406,4.123h15.379
		C22.514,8.893,20.869,7.689,20.783,7.629z"/>
	<path fill="#231F20" d="M7.524,14.113c-0.021,0.169-0.177,1.855,0.675,3.827c0.535,1.235,1.557,2.742,3.496,3.965
		c0.988,0.623,2.215,1.174,3.738,1.574l0.066,0.021l0.066-0.021c4.513-1.191,6.426-3.672,7.233-5.539
		c0.854-1.971,0.698-3.657,0.679-3.827"/>
</g>
</svg>
