<?xml version="1.0" encoding="utf-8"?>
<!-- Generator: Adobe Illustrator 13.0.2, SVG Export Plug-In . SVG Version: 6.00 Build 14948)  -->
<!DOCTYPE svg PUBLIC "-//W3C//DTD SVG 1.1//EN" "http://www.w3.org/Graphics/SVG/1.1/DTD/svg11.dtd">
<svg version="1.1" id="Layer_1" xmlns="http://www.w3.org/2000/svg" xmlns:xlink="http://www.w3.org/1999/xlink" x="0px" y="0px"
	 width="32px" height="32px" viewBox="0 0 32 32" enable-background="new 0 0 32 32" xml:space="preserve">
<g>
	<g>
		<path stroke="#000000" stroke-width="3.408" stroke-miterlimit="10" d="M9.303,7.501c-1.145,0-1.789,0.592-1.789,1.802v12.472
			c0,1.132,0.579,1.725,1.724,1.725h12.524c1.145,0,1.725-0.563,1.725-1.725V9.303c0-1.18-0.58-1.802-1.76-1.802
			C21.727,7.501,9.299,7.498,9.303,7.501z"/>
	</g>
	<g>
		<g>
			<g>
				<path fill="#FFFFFF" d="M16.362,21.67c0.623-0.27,0.914-0.232,1.427,0.035c0.513,0.269,1.025,0.269,1.63-0.04
					s1.097-0.133,1.37,0.033c0.229,0.139,0.457,0.193,0.799,0.193v-1.233c-0.516,0.001-0.736-0.175-0.736-0.175
					c-0.532-0.328-1.021-0.264-1.69,0.085c-0.383,0.199-0.989,0.147-1.419-0.077c-0.591-0.309-0.926-0.232-1.546,0.043
					c-0.48,0.214-0.914,0.214-1.393,0c-0.62-0.276-0.939-0.352-1.531-0.043c-0.429,0.225-1.045,0.276-1.427,0.077
					c-0.671-0.349-1.149-0.413-1.683-0.085c0,0-0.229,0.175-0.735,0.175v1.233c0.319,0,0.568-0.062,0.783-0.193
					c0.272-0.167,0.781-0.342,1.386-0.033s1.117,0.309,1.63,0.04c0.513-0.268,0.797-0.316,1.42-0.047
					C15.251,21.967,15.85,21.938,16.362,21.67z"/>
			</g>
			<g>
				<path fill="#FFFFFF" d="M16.349,19.842c0.491-0.25,0.934-0.235,1.446,0.033c0.513,0.268,1.025,0.268,1.63-0.041
					c0.605-0.309,1.113-0.152,1.394-0.001c0.247,0.133,0.421,0.202,0.776,0.229v-1.204c-0.453-0.011-0.736-0.174-0.736-0.174
					c-1.047-0.571-1.502,0.124-2.064,0.124v-2.782l0.868-1.999c0.131-0.308,0-0.59-0.315-0.724l-0.526-0.214v-1.73h-1.013v-0.911
					h-1.419V9.226h-0.881h-0.881v1.221h-1.419v0.911h-1.014v1.73l-0.525,0.214c-0.315,0.134-0.447,0.416-0.315,0.724l0.867,1.999
					v2.782h0.001c-0.562,0-1.041-0.684-2.064-0.113l0,0c0,0-0.293,0.163-0.736,0.175v1.192c0.347-0.026,0.513-0.081,0.775-0.229
					c0.279-0.155,0.789-0.308,1.394,0.001s1.117,0.309,1.63,0.041c0.513-0.269,0.96-0.282,1.439-0.041
					C15.265,20.143,15.739,20.146,16.349,19.842z"/>
			</g>
		</g>
		<g>
			<polygon points="15.508,11.17 13.956,11.17 13.956,12.068 12.944,12.068 12.944,12.767 15.508,11.709 18.071,12.767 
				18.071,12.068 17.059,12.068 17.059,11.17 			"/>
		</g>
	</g>
</g>
</svg>
