<?xml version="1.0" encoding="utf-8"?>
<!-- Generator: Adobe Illustrator 13.0.2, SVG Export Plug-In . SVG Version: 6.00 Build 14948)  -->
<!DOCTYPE svg PUBLIC "-//W3C//DTD SVG 1.1//EN" "http://www.w3.org/Graphics/SVG/1.1/DTD/svg11.dtd">
<svg version="1.1" id="Layer_1" xmlns="http://www.w3.org/2000/svg" xmlns:xlink="http://www.w3.org/1999/xlink" x="0px" y="0px"
	 width="32px" height="32px" viewBox="0 0 32 32" enable-background="new 0 0 32 32" xml:space="preserve">
<path d="M20.11,21.817c-0.482,0.251-1.248,0.186-1.79-0.098c-0.746-0.389-1.169-0.294-1.952,0.054c-0.605,0.27-1.153,0.27-1.757,0
	c-0.782-0.349-1.186-0.442-1.932-0.054c-0.542,0.283-1.319,0.349-1.802,0.098c-0.847-0.44-1.451-0.522-2.123-0.107
	c0,0-0.29,0.221-0.93,0.221v1.557c0.403,0,0.719-0.078,0.989-0.244c0.344-0.211,0.985-0.432,1.749-0.042s1.41,0.39,2.058,0.051
	s1.006-0.399,1.792-0.06c0.764,0.39,1.519,0.354,2.165,0.016c0.787-0.341,1.153-0.295,1.801,0.044s1.294,0.339,2.058-0.051
	c0.763-0.39,1.385-0.167,1.729,0.042c0.288,0.175,0.576,0.244,1.009,0.244v-1.557c-0.65,0.001-0.93-0.221-0.93-0.221
	C21.573,21.295,20.957,21.377,20.11,21.817z M22.254,19.438c-1.321-0.72-1.896,0.157-2.605,0.157v-3.512l1.095-2.522
	c0.166-0.39,0-0.745-0.398-0.914l-0.663-0.271v-2.184h-1.279v-1.15h-1.791V7.5h-2.223v1.541h-1.791v1.15h-1.279v2.184l-0.663,0.271
	c-0.398,0.169-0.564,0.524-0.398,0.914l1.095,2.522v3.512c-0.71,0-1.313-0.863-2.604-0.144H8.746c0,0-0.369,0.207-0.929,0.221v1.505
	c0.438-0.032,0.647-0.103,0.979-0.288c0.353-0.196,0.996-0.388,1.76,0.002c0.763,0.39,1.41,0.39,2.058,0.051
	c0.646-0.339,1.211-0.355,1.816-0.051c0.764,0.39,1.362,0.394,2.131,0.009c0.621-0.314,1.18-0.297,1.826,0.042
	c0.647,0.339,1.295,0.339,2.058-0.051c0.764-0.39,1.404-0.192,1.76-0.002c0.312,0.168,0.529,0.256,0.979,0.288v-1.519
	C22.611,19.645,22.254,19.438,22.254,19.438z M18.735,11.969L15.5,10.635l-3.235,1.334v-0.881h1.277V9.955h3.916v1.133h1.277V11.969
	z"/>
</svg>
